<?xml version="1.0" encoding="UTF-8" standalone="no"?>
<!DOCTYPE svg PUBLIC "-//W3C//DTD SVG 1.1//EN"
 "http://www.w3.org/Graphics/SVG/1.1/DTD/svg11.dtd">
<!-- Generated by graphviz version 2.38.0 (20140413.2041)
 -->
<!-- Title: %3 Pages: 1 -->
<svg width="1161pt" height="1320pt"
 viewBox="0.00 0.00 1161.00 1320.00" xmlns="http://www.w3.org/2000/svg" xmlns:xlink="http://www.w3.org/1999/xlink">
<g id="graph0" class="graph" transform="scale(1 1) rotate(0) translate(4 1316)">
<title>%3</title>
<polygon fill="white" stroke="none" points="-4,4 -4,-1316 1157,-1316 1157,4 -4,4"/>
<!-- DefiningMeaning -->
<g id="node1" class="node"><title>DefiningMeaning</title>
<path fill="#fff0f0" stroke="#ed1c24" stroke-width="2" d="M444.5,-1312C444.5,-1312 189.5,-1312 189.5,-1312 183.5,-1312 177.5,-1306 177.5,-1300 177.5,-1300 177.5,-1256 177.5,-1256 177.5,-1250 183.5,-1244 189.5,-1244 189.5,-1244 444.5,-1244 444.5,-1244 450.5,-1244 456.5,-1250 456.5,-1256 456.5,-1256 456.5,-1300 456.5,-1300 456.5,-1306 450.5,-1312 444.5,-1312"/>
<text text-anchor="middle" x="317" y="-1283.6" font-family="Helvetica,sans-Serif" font-weight="bold" font-size="18.00">Defining the meaning</text>
<text text-anchor="middle" x="317" y="-1263.6" font-family="Helvetica,sans-Serif" font-weight="bold" font-size="18.00">of an unnamed attribute</text>
</g>
<!-- AttributeValue -->
<g id="node2" class="node"><title>AttributeValue</title>
<polygon fill="#e0f6ff" stroke="#00a2e8" stroke-width="2" points="464.438,-1208 229.897,-1208 169.562,-1150 404.103,-1150 464.438,-1208"/>
<text text-anchor="middle" x="317" y="-1175.3" font-family="Helvetica,sans-Serif" font-size="14.00">Read attribute value</text>
</g>
<!-- DefiningMeaning&#45;&gt;AttributeValue -->
<g id="edge1" class="edge"><title>DefiningMeaning&#45;&gt;AttributeValue</title>
<path fill="none" stroke="black" d="M317,-1243.89C317,-1235.62 317,-1226.68 317,-1218.18"/>
<polygon fill="black" stroke="black" points="320.5,-1218.12 317,-1208.12 313.5,-1218.12 320.5,-1218.12"/>
</g>
<!-- IsFirstAttribute -->
<g id="node3" class="node"><title>IsFirstAttribute</title>
<polygon fill="#f2fff6" stroke="#22b14c" stroke-width="2" points="317,-1114 150,-1076 317,-1038 484,-1076 317,-1114"/>
<text text-anchor="middle" x="317" y="-1079.8" font-family="Helvetica,sans-Serif" font-size="14.00">Is this the first</text>
<text text-anchor="middle" x="317" y="-1064.8" font-family="Helvetica,sans-Serif" font-size="14.00">attribute that is defined?</text>
</g>
<!-- AttributeValue&#45;&gt;IsFirstAttribute -->
<g id="edge2" class="edge"><title>AttributeValue&#45;&gt;IsFirstAttribute</title>
<path fill="none" stroke="black" d="M317,-1149.87C317,-1141.89 317,-1132.99 317,-1124.22"/>
<polygon fill="black" stroke="black" points="320.5,-1124.05 317,-1114.05 313.5,-1124.05 320.5,-1124.05"/>
</g>
<!-- AttributeValueQuoted -->
<g id="node4" class="node"><title>AttributeValueQuoted</title>
<polygon fill="#edeeff" stroke="#3f48cc" stroke-width="2" points="233,-718 63,-665 233,-612 403,-665 233,-718"/>
<text text-anchor="middle" x="233" y="-676.3" font-family="Helvetica,sans-Serif" font-size="14.00">Is the attribute value</text>
<text text-anchor="middle" x="233" y="-661.3" font-family="Helvetica,sans-Serif" font-size="14.00">enclosed within single (&#39;)</text>
<text text-anchor="middle" x="233" y="-646.3" font-family="Helvetica,sans-Serif" font-size="14.00">or double (&quot;) quotes?</text>
</g>
<!-- IsFirstAttribute&#45;&gt;AttributeValueQuoted -->
<g id="edge3" class="edge"><title>IsFirstAttribute&#45;&gt;AttributeValueQuoted</title>
<path fill="none" stroke="black" d="M294.092,-1043.2C286.089,-1030.84 277.692,-1016.24 272,-1002 235.818,-911.493 230.159,-797.104 230.654,-727.848"/>
<polygon fill="black" stroke="black" points="234.157,-727.589 230.775,-717.548 227.157,-727.506 234.157,-727.589"/>
<text text-anchor="middle" x="277.213" y="-1028.77" font-family="Helvetica,sans-Serif" font-size="14.00">Y</text>
</g>
<!-- PreviousSeparatorComma -->
<g id="node5" class="node"><title>PreviousSeparatorComma</title>
<polygon fill="#f7edf7" stroke="#a349a4" stroke-width="2" points="412,-1002 281,-949 412,-896 543,-949 412,-1002"/>
<text text-anchor="middle" x="412" y="-960.3" font-family="Helvetica,sans-Serif" font-size="14.00">Was the previous</text>
<text text-anchor="middle" x="412" y="-945.3" font-family="Helvetica,sans-Serif" font-size="14.00">attribute separator</text>
<text text-anchor="middle" x="412" y="-930.3" font-family="Helvetica,sans-Serif" font-size="14.00">a comma ( , )?</text>
</g>
<!-- IsFirstAttribute&#45;&gt;PreviousSeparatorComma -->
<g id="edge4" class="edge"><title>IsFirstAttribute&#45;&gt;PreviousSeparatorComma</title>
<path fill="none" stroke="black" d="M341.218,-1043.13C351.608,-1029.46 363.972,-1013.19 375.438,-998.108"/>
<polygon fill="black" stroke="black" points="378.432,-999.952 381.697,-989.873 372.859,-995.717 378.432,-999.952"/>
<text text-anchor="middle" x="345.457" y="-1019.89" font-family="Helvetica,sans-Serif" font-size="14.00">N</text>
</g>
<!-- FirstCharDigit -->
<g id="node7" class="node"><title>FirstCharDigit</title>
<polygon fill="#edeeff" stroke="#3f48cc" stroke-width="2" points="254,-576 87,-523 254,-470 421,-523 254,-576"/>
<text text-anchor="middle" x="254" y="-534.3" font-family="Helvetica,sans-Serif" font-size="14.00">Is the first</text>
<text text-anchor="middle" x="254" y="-519.3" font-family="Helvetica,sans-Serif" font-size="14.00">character in the attribute</text>
<text text-anchor="middle" x="254" y="-504.3" font-family="Helvetica,sans-Serif" font-size="14.00">value a digit (0&#45;9)?</text>
</g>
<!-- AttributeValueQuoted&#45;&gt;FirstCharDigit -->
<g id="edge7" class="edge"><title>AttributeValueQuoted&#45;&gt;FirstCharDigit</title>
<path fill="none" stroke="black" d="M240.463,-614.247C241.931,-604.462 243.485,-594.1 244.997,-584.019"/>
<polygon fill="black" stroke="black" points="248.468,-584.473 246.49,-574.064 241.546,-583.435 248.468,-584.473"/>
<text text-anchor="middle" x="234.793" y="-591.368" font-family="Helvetica,sans-Serif" font-size="14.00">N</text>
</g>
<!-- ItIsName -->
<g id="node8" class="node"><title>ItIsName</title>
<path fill="#fff7f2" stroke="#ff7d27" stroke-width="2" d="M266,-68C266,-68 12,-68 12,-68 6,-68 0,-62 0,-56 0,-56 0,-12 0,-12 0,-6 6,-0 12,-0 12,-0 266,-0 266,-0 272,-0 278,-6 278,-12 278,-12 278,-56 278,-56 278,-62 272,-68 266,-68"/>
<text text-anchor="middle" x="139" y="-39.6" font-family="Helvetica,sans-Serif" font-weight="bold" font-size="18.00">The attribute represents</text>
<text text-anchor="middle" x="139" y="-19.6" font-family="Helvetica,sans-Serif" font-weight="bold" font-size="18.00">the node&#39;s Name</text>
</g>
<!-- AttributeValueQuoted&#45;&gt;ItIsName -->
<g id="edge8" class="edge"><title>AttributeValueQuoted&#45;&gt;ItIsName</title>
<path fill="none" stroke="black" d="M153.308,-636.709C124.954,-622.949 95.698,-603.248 78,-576 30.8101,-503.345 59,-468.635 59,-382 59,-382 59,-382 59,-253 59,-188.774 89.9813,-120.06 113.384,-77.3173"/>
<polygon fill="black" stroke="black" points="116.578,-78.7772 118.398,-68.3399 110.466,-75.3639 116.578,-78.7772"/>
<text text-anchor="middle" x="148.628" y="-618.757" font-family="Helvetica,sans-Serif" font-size="14.00">Y</text>
</g>
<!-- NameSpecified -->
<g id="node6" class="node"><title>NameSpecified</title>
<polygon fill="#f2fff6" stroke="#22b14c" stroke-width="2" points="412,-860 251,-807 412,-754 573,-807 412,-860"/>
<text text-anchor="middle" x="412" y="-818.3" font-family="Helvetica,sans-Serif" font-size="14.00">Has a Name</text>
<text text-anchor="middle" x="412" y="-803.3" font-family="Helvetica,sans-Serif" font-size="14.00">already been specified</text>
<text text-anchor="middle" x="412" y="-788.3" font-family="Helvetica,sans-Serif" font-size="14.00">for this node?</text>
</g>
<!-- PreviousSeparatorComma&#45;&gt;NameSpecified -->
<g id="edge5" class="edge"><title>PreviousSeparatorComma&#45;&gt;NameSpecified</title>
<path fill="none" stroke="black" d="M412,-895.869C412,-887.579 412,-878.93 412,-870.432"/>
<polygon fill="black" stroke="black" points="415.5,-870.174 412,-860.174 408.5,-870.174 415.5,-870.174"/>
<text text-anchor="middle" x="401.393" y="-881.563" font-family="Helvetica,sans-Serif" font-size="14.00">Y</text>
</g>
<!-- PreviousSeparatorColon -->
<g id="node14" class="node"><title>PreviousSeparatorColon</title>
<polygon fill="#f7edf7" stroke="#a349a4" stroke-width="2" points="590,-434 459,-381 590,-328 721,-381 590,-434"/>
<text text-anchor="middle" x="590" y="-392.3" font-family="Helvetica,sans-Serif" font-size="14.00">Was the previous</text>
<text text-anchor="middle" x="590" y="-377.3" font-family="Helvetica,sans-Serif" font-size="14.00">attribute separator</text>
<text text-anchor="middle" x="590" y="-362.3" font-family="Helvetica,sans-Serif" font-size="14.00">a colon ( : )?</text>
</g>
<!-- PreviousSeparatorComma&#45;&gt;PreviousSeparatorColon -->
<g id="edge18" class="edge"><title>PreviousSeparatorComma&#45;&gt;PreviousSeparatorColon</title>
<path fill="none" stroke="black" d="M490.252,-927.401C524.561,-914.088 561.6,-892.907 582,-860 663.937,-727.825 630.219,-533.069 606.25,-438.145"/>
<polygon fill="black" stroke="black" points="609.636,-437.257 603.748,-428.449 602.858,-439.007 609.636,-437.257"/>
<text text-anchor="middle" x="496.056" y="-909.869" font-family="Helvetica,sans-Serif" font-size="14.00">N</text>
</g>
<!-- NameSpecified&#45;&gt;AttributeValueQuoted -->
<g id="edge6" class="edge"><title>NameSpecified&#45;&gt;AttributeValueQuoted</title>
<path fill="none" stroke="black" d="M364.97,-769.217C341.611,-750.947 313.228,-728.748 288.777,-709.625"/>
<polygon fill="black" stroke="black" points="290.682,-706.671 280.649,-703.267 286.37,-712.185 290.682,-706.671"/>
<text text-anchor="middle" x="345.485" y="-761.007" font-family="Helvetica,sans-Serif" font-size="14.00">N</text>
</g>
<!-- ItIsUndefined -->
<g id="node13" class="node"><title>ItIsUndefined</title>
<path fill="#fff7f2" stroke="#ff7d27" stroke-width="2" d="M805,-68C805,-68 647,-68 647,-68 641,-68 635,-62 635,-56 635,-56 635,-12 635,-12 635,-6 641,-0 647,-0 647,-0 805,-0 805,-0 811,-0 817,-6 817,-12 817,-12 817,-56 817,-56 817,-62 811,-68 805,-68"/>
<text text-anchor="middle" x="726" y="-39.6" font-family="Helvetica,sans-Serif" font-weight="bold" font-size="18.00">The attribute</text>
<text text-anchor="middle" x="726" y="-19.6" font-family="Helvetica,sans-Serif" font-weight="bold" font-size="18.00">is undefined</text>
</g>
<!-- NameSpecified&#45;&gt;ItIsUndefined -->
<g id="edge17" class="edge"><title>NameSpecified&#45;&gt;ItIsUndefined</title>
<path fill="none" stroke="black" d="M490.586,-779.766C590.167,-740.971 749,-658.078 749,-524 749,-524 749,-524 749,-253 749,-192.047 739.998,-122.035 733.257,-78.1562"/>
<polygon fill="black" stroke="black" points="736.691,-77.4627 731.685,-68.1251 729.776,-78.5464 736.691,-77.4627"/>
<text text-anchor="middle" x="496.346" y="-762.216" font-family="Helvetica,sans-Serif" font-size="14.00">Y</text>
</g>
<!-- FirstCharDigit&#45;&gt;ItIsName -->
<g id="edge10" class="edge"><title>FirstCharDigit&#45;&gt;ItIsName</title>
<path fill="none" stroke="black" d="M199.508,-487.221C180.945,-472.842 161.697,-454.672 149,-434 79.9327,-321.55 108.095,-155.586 127.046,-77.9661"/>
<polygon fill="black" stroke="black" points="130.493,-78.6096 129.533,-68.0583 123.704,-76.9052 130.493,-78.6096"/>
<text text-anchor="middle" x="180.054" y="-478.882" font-family="Helvetica,sans-Serif" font-size="14.00">N</text>
</g>
<!-- NodeChildren -->
<g id="node9" class="node"><title>NodeChildren</title>
<polygon fill="#faffeb" stroke="#b4e61d" stroke-width="2" points="292,-419 158,-381 292,-343 426,-381 292,-419"/>
<text text-anchor="middle" x="292" y="-384.8" font-family="Helvetica,sans-Serif" font-size="14.00">Does the node</text>
<text text-anchor="middle" x="292" y="-369.8" font-family="Helvetica,sans-Serif" font-size="14.00">have any children?</text>
</g>
<!-- FirstCharDigit&#45;&gt;NodeChildren -->
<g id="edge9" class="edge"><title>FirstCharDigit&#45;&gt;NodeChildren</title>
<path fill="none" stroke="black" d="M267.077,-473.82C271.229,-458.525 275.8,-441.685 279.881,-426.65"/>
<polygon fill="black" stroke="black" points="283.375,-427.138 282.617,-416.57 276.619,-425.304 283.375,-427.138"/>
<text text-anchor="middle" x="263.668" y="-450.413" font-family="Helvetica,sans-Serif" font-size="14.00">Y</text>
</g>
<!-- ItIsSupport -->
<g id="node12" class="node"><title>ItIsSupport</title>
<path fill="#fff7f2" stroke="#ff7d27" stroke-width="2" d="M605,-68C605,-68 351,-68 351,-68 345,-68 339,-62 339,-56 339,-56 339,-12 339,-12 339,-6 345,-0 351,-0 351,-0 605,-0 605,-0 611,-0 617,-6 617,-12 617,-12 617,-56 617,-56 617,-62 611,-68 605,-68"/>
<text text-anchor="middle" x="478" y="-39.6" font-family="Helvetica,sans-Serif" font-weight="bold" font-size="18.00">The attribute represents</text>
<text text-anchor="middle" x="478" y="-19.6" font-family="Helvetica,sans-Serif" font-weight="bold" font-size="18.00">the node&#39;s Support</text>
</g>
<!-- ItIsName&#45;&gt;ItIsSupport -->
<g id="edge24" class="edge"><title>ItIsName&#45;&gt;ItIsSupport</title>
</g>
<!-- IsFirstAttribute2 -->
<g id="node10" class="node"><title>IsFirstAttribute2</title>
<polygon fill="#f2fff6" stroke="#22b14c" stroke-width="2" points="292,-292 125,-254 292,-216 459,-254 292,-292"/>
<text text-anchor="middle" x="292" y="-257.8" font-family="Helvetica,sans-Serif" font-size="14.00">Is this the first</text>
<text text-anchor="middle" x="292" y="-242.8" font-family="Helvetica,sans-Serif" font-size="14.00">attribute that is defined?</text>
</g>
<!-- NodeChildren&#45;&gt;IsFirstAttribute2 -->
<g id="edge11" class="edge"><title>NodeChildren&#45;&gt;IsFirstAttribute2</title>
<path fill="none" stroke="black" d="M292,-342.834C292,-330.103 292,-315.684 292,-302.262"/>
<polygon fill="black" stroke="black" points="295.5,-302.238 292,-292.238 288.5,-302.238 295.5,-302.238"/>
<text text-anchor="middle" x="283.548" y="-321.008" font-family="Helvetica,sans-Serif" font-size="14.00">N</text>
</g>
<!-- AttributeNumber -->
<g id="node11" class="node"><title>AttributeNumber</title>
<polygon fill="#edeeff" stroke="#3f48cc" stroke-width="2" points="487,-180 299,-142 487,-104 675,-142 487,-180"/>
<text text-anchor="middle" x="487" y="-145.8" font-family="Helvetica,sans-Serif" font-size="14.00">Does the attribute</text>
<text text-anchor="middle" x="487" y="-130.8" font-family="Helvetica,sans-Serif" font-size="14.00">value represent a Number?</text>
</g>
<!-- NodeChildren&#45;&gt;AttributeNumber -->
<g id="edge13" class="edge"><title>NodeChildren&#45;&gt;AttributeNumber</title>
<path fill="none" stroke="black" d="M361.467,-362.595C399.043,-349.493 442.799,-327.526 468,-292 488.943,-262.476 492.761,-221.163 491.867,-189.525"/>
<polygon fill="black" stroke="black" points="495.349,-189.03 491.401,-179.197 488.356,-189.345 495.349,-189.03"/>
<text text-anchor="middle" x="375.565" y="-344.71" font-family="Helvetica,sans-Serif" font-size="14.00">Y</text>
</g>
<!-- IsFirstAttribute2&#45;&gt;ItIsName -->
<g id="edge12" class="edge"><title>IsFirstAttribute2&#45;&gt;ItIsName</title>
<path fill="none" stroke="black" d="M269.424,-220.833C242.517,-182.495 197.501,-118.354 168.029,-76.3614"/>
<polygon fill="black" stroke="black" points="170.779,-74.1879 162.17,-68.0133 165.05,-78.2092 170.779,-74.1879"/>
<text text-anchor="middle" x="252.093" y="-207.152" font-family="Helvetica,sans-Serif" font-size="14.00">Y</text>
</g>
<!-- IsFirstAttribute2&#45;&gt;AttributeNumber -->
<g id="edge14" class="edge"><title>IsFirstAttribute2&#45;&gt;AttributeNumber</title>
<path fill="none" stroke="black" d="M339.204,-226.372C366.478,-210.987 400.982,-191.523 429.792,-175.271"/>
<polygon fill="black" stroke="black" points="431.545,-178.301 438.535,-170.339 428.106,-172.204 431.545,-178.301"/>
<text text-anchor="middle" x="350.839" y="-206.404" font-family="Helvetica,sans-Serif" font-size="14.00">N</text>
</g>
<!-- AttributeNumber&#45;&gt;ItIsSupport -->
<g id="edge15" class="edge"><title>AttributeNumber&#45;&gt;ItIsSupport</title>
<path fill="none" stroke="black" d="M483.903,-104.521C483.186,-96.0843 482.417,-87.0272 481.679,-78.3297"/>
<polygon fill="black" stroke="black" points="485.165,-78.0116 480.831,-68.3436 478.19,-78.6039 485.165,-78.0116"/>
<text text-anchor="middle" x="472.437" y="-91.1496" font-family="Helvetica,sans-Serif" font-size="14.00">Y</text>
</g>
<!-- AttributeNumber&#45;&gt;ItIsUndefined -->
<g id="edge16" class="edge"><title>AttributeNumber&#45;&gt;ItIsUndefined</title>
<path fill="none" stroke="black" d="M544.551,-115.475C573.716,-102.54 609.687,-86.5863 641.89,-72.3041"/>
<polygon fill="black" stroke="black" points="643.584,-75.3818 651.306,-68.128 640.745,-68.9829 643.584,-75.3818"/>
<text text-anchor="middle" x="557.693" y="-96.7001" font-family="Helvetica,sans-Serif" font-size="14.00">N</text>
</g>
<!-- ItIsSupport&#45;&gt;ItIsUndefined -->
<g id="edge25" class="edge"><title>ItIsSupport&#45;&gt;ItIsUndefined</title>
</g>
<!-- ItIsLength -->
<g id="node16" class="node"><title>ItIsLength</title>
<path fill="#fff7f2" stroke="#ff7d27" stroke-width="2" d="M1101,-68C1101,-68 847,-68 847,-68 841,-68 835,-62 835,-56 835,-56 835,-12 835,-12 835,-6 841,-0 847,-0 847,-0 1101,-0 1101,-0 1107,-0 1113,-6 1113,-12 1113,-12 1113,-56 1113,-56 1113,-62 1107,-68 1101,-68"/>
<text text-anchor="middle" x="974" y="-39.6" font-family="Helvetica,sans-Serif" font-weight="bold" font-size="18.00">The attribute represents</text>
<text text-anchor="middle" x="974" y="-19.6" font-family="Helvetica,sans-Serif" font-weight="bold" font-size="18.00">the node&#39;s Length</text>
</g>
<!-- ItIsUndefined&#45;&gt;ItIsLength -->
<g id="edge26" class="edge"><title>ItIsUndefined&#45;&gt;ItIsLength</title>
</g>
<!-- AttributeNumber2 -->
<g id="node15" class="node"><title>AttributeNumber2</title>
<polygon fill="#edeeff" stroke="#3f48cc" stroke-width="2" points="965,-180 777,-142 965,-104 1153,-142 965,-180"/>
<text text-anchor="middle" x="965" y="-145.8" font-family="Helvetica,sans-Serif" font-size="14.00">Does the attribute</text>
<text text-anchor="middle" x="965" y="-130.8" font-family="Helvetica,sans-Serif" font-size="14.00">value represent a Number?</text>
</g>
<!-- PreviousSeparatorColon&#45;&gt;AttributeNumber2 -->
<g id="edge19" class="edge"><title>PreviousSeparatorColon&#45;&gt;AttributeNumber2</title>
<path fill="none" stroke="black" d="M640.185,-348.283C710.953,-303.558 839.49,-222.322 911.838,-176.599"/>
<polygon fill="black" stroke="black" points="913.791,-179.504 920.375,-171.203 910.051,-173.587 913.791,-179.504"/>
<text text-anchor="middle" x="650.992" y="-327.754" font-family="Helvetica,sans-Serif" font-size="14.00">Y</text>
</g>
<!-- PreviousSeparatorSlash -->
<g id="node17" class="node"><title>PreviousSeparatorSlash</title>
<polygon fill="#f7edf7" stroke="#a349a4" stroke-width="2" points="696.5,-280.5 515.5,-280.5 515.5,-227.5 696.5,-227.5 696.5,-280.5"/>
<text text-anchor="middle" x="606" y="-265.3" font-family="Helvetica,sans-Serif" font-size="14.00">The previous attribute</text>
<text text-anchor="middle" x="606" y="-250.3" font-family="Helvetica,sans-Serif" font-size="14.00">separator must have been</text>
<text text-anchor="middle" x="606" y="-235.3" font-family="Helvetica,sans-Serif" font-size="14.00">a forward slash ( / )</text>
</g>
<!-- PreviousSeparatorColon&#45;&gt;PreviousSeparatorSlash -->
<g id="edge22" class="edge"><title>PreviousSeparatorColon&#45;&gt;PreviousSeparatorSlash</title>
<path fill="none" stroke="black" d="M596.37,-330.238C598.055,-317.073 599.84,-303.121 601.411,-290.854"/>
<polygon fill="black" stroke="black" points="604.929,-290.934 602.727,-280.57 597.986,-290.045 604.929,-290.934"/>
<text text-anchor="middle" x="590.287" y="-307.485" font-family="Helvetica,sans-Serif" font-size="14.00">N</text>
</g>
<!-- AttributeNumber2&#45;&gt;ItIsUndefined -->
<g id="edge21" class="edge"><title>AttributeNumber2&#45;&gt;ItIsUndefined</title>
<path fill="none" stroke="black" d="M907.449,-115.475C878.284,-102.54 842.313,-86.5863 810.11,-72.3041"/>
<polygon fill="black" stroke="black" points="811.255,-68.9829 800.694,-68.128 808.416,-75.3818 811.255,-68.9829"/>
<text text-anchor="middle" x="902.054" y="-97.7795" font-family="Helvetica,sans-Serif" font-size="14.00">N</text>
</g>
<!-- AttributeNumber2&#45;&gt;ItIsLength -->
<g id="edge20" class="edge"><title>AttributeNumber2&#45;&gt;ItIsLength</title>
<path fill="none" stroke="black" d="M968.097,-104.521C968.814,-96.0843 969.583,-87.0272 970.321,-78.3297"/>
<polygon fill="black" stroke="black" points="973.81,-78.6039 971.169,-68.3436 966.835,-78.0116 973.81,-78.6039"/>
<text text-anchor="middle" x="962.931" y="-86.7386" font-family="Helvetica,sans-Serif" font-size="14.00">Y</text>
</g>
<!-- PreviousSeparatorSlash&#45;&gt;AttributeNumber -->
<g id="edge23" class="edge"><title>PreviousSeparatorSlash&#45;&gt;AttributeNumber</title>
<path fill="none" stroke="black" d="M578.4,-227.487C563.277,-213.508 544.249,-195.92 527.476,-180.415"/>
<polygon fill="black" stroke="black" points="529.67,-177.676 519.951,-173.459 524.918,-182.817 529.67,-177.676"/>
</g>
</g>
</svg>
