<?xml version="1.0" encoding="UTF-8" standalone="no"?>
<svg
   xmlns:dc="http://purl.org/dc/elements/1.1/"
   xmlns:cc="http://creativecommons.org/ns#"
   xmlns:rdf="http://www.w3.org/1999/02/22-rdf-syntax-ns#"
   xmlns:svg="http://www.w3.org/2000/svg"
   xmlns="http://www.w3.org/2000/svg"
   xmlns:sodipodi="http://sodipodi.sourceforge.net/DTD/sodipodi-0.dtd"
   xmlns:inkscape="http://www.inkscape.org/namespaces/inkscape"
   inkscape:version="1.0 (4035a4fb49, 2020-05-01)"
   sodipodi:docname="Csharpbutton.svg"
   id="svg1421"
   version="1.1"
   viewBox="0 0 169.69493 43.072918"
   height="43.072918mm"
   width="169.69493mm">
  <defs
     id="defs1415" />
  <sodipodi:namedview
     inkscape:window-maximized="1"
     inkscape:window-y="-8"
     inkscape:window-x="-8"
     inkscape:window-height="1377"
     inkscape:window-width="2560"
     lock-margins="true"
     fit-margin-bottom="5"
     fit-margin-right="5"
     fit-margin-left="5"
     fit-margin-top="5"
     showgrid="false"
     inkscape:document-rotation="0"
     inkscape:current-layer="layer1"
     inkscape:document-units="mm"
     inkscape:cy="296.42153"
     inkscape:cx="379.44551"
     inkscape:zoom="1.0574425"
     inkscape:pageshadow="2"
     inkscape:pageopacity="0.0"
     borderopacity="1.0"
     bordercolor="#666666"
     pagecolor="#ffffff"
     id="base" />
  <metadata
     id="metadata1418">
    <rdf:RDF>
      <cc:Work
         rdf:about="">
        <dc:format>image/svg+xml</dc:format>
        <dc:type
           rdf:resource="http://purl.org/dc/dcmitype/StillImage" />
        <dc:title></dc:title>
      </cc:Work>
    </rdf:RDF>
  </metadata>
  <g
     transform="translate(4.2440478,-258.26041)"
     id="layer1"
     inkscape:groupmode="layer"
     inkscape:label="Livello 1">
    <rect
       rx="10"
       y="263.26041"
       x="0.75595224"
       height="33.072918"
       width="159.69493"
       id="rect1427"
       style="fill:#93c2ed;fill-opacity:1;stroke:none;stroke-width:4;stroke-linecap:round;stroke-linejoin:round" />
    <g
       style="font-style:normal;font-weight:normal;font-size:10.5833px;line-height:1.25;font-family:sans-serif;fill:#ffffff;fill-opacity:1;stroke:none;stroke-width:0.264583"
       id="text1425"
       aria-label="C# library documentation">
      <path
         id="path1990"
         style="font-style:normal;font-variant:normal;font-weight:bold;font-stretch:normal;font-family:'Segoe UI';-inkscape-font-specification:'Segoe UI';fill:#ffffff;fill-opacity:1;stroke-width:0.264583"
         d="m 22.994717,282.20755 q -0.811318,0.39274 -2.118727,0.39274 -1.705317,0 -2.681999,-1.00252 -0.976681,-1.00252 -0.976681,-2.67166 0,-1.77767 1.095537,-2.88354 1.100704,-1.10587 2.85253,-1.10587 1.085201,0 1.82934,0.27388 v 1.60714 q -0.744139,-0.44442 -1.694982,-0.44442 -1.04386,0 -1.684646,0.65629 -0.640786,0.65629 -0.640786,1.77766 0,1.07487 0.604612,1.71565 0.604613,0.63562 1.627803,0.63562 0.976681,0 1.787999,-0.47542 z" />
      <path
         id="path1992"
         style="font-style:normal;font-variant:normal;font-weight:bold;font-stretch:normal;font-family:'Segoe UI';-inkscape-font-specification:'Segoe UI';fill:#ffffff;fill-opacity:1;stroke-width:0.264583"
         d="m 29.526597,276.94691 -0.201538,0.93017 h -0.956011 l -0.284219,1.28157 h 1.069699 l -0.232544,0.93017 h -1.028357 l -0.403075,1.788 h -1.033526 l 0.377237,-1.788 h -1.183386 l -0.382405,1.788 h -1.033525 l 0.366901,-1.788 H 23.64067 l 0.191202,-0.93017 h 0.971514 l 0.273884,-1.28157 h -1.043861 l 0.1757,-0.93017 h 1.059363 l 0.382405,-1.83968 h 1.059363 l -0.382404,1.83968 h 1.183386 l 0.39274,-1.83968 h 1.049028 l -0.382404,1.83968 z m -2.201409,0.93017 h -1.19889 l -0.284219,1.28157 h 1.193722 z" />
      <path
         id="path1994"
         style="font-style:normal;font-variant:normal;font-weight:bold;font-stretch:normal;font-family:'Segoe UI';-inkscape-font-specification:'Segoe UI';fill:#ffffff;fill-opacity:1;stroke-width:0.264583"
         d="m 34.947437,282.4711 h -1.63297 v -7.83412 h 1.63297 z" />
      <path
         id="path1996"
         style="font-style:normal;font-variant:normal;font-weight:bold;font-stretch:normal;font-family:'Segoe UI';-inkscape-font-specification:'Segoe UI';fill:#ffffff;fill-opacity:1;stroke-width:0.264583"
         d="m 37.159182,276.34229 q -0.41341,0 -0.676959,-0.24287 -0.263549,-0.24805 -0.263549,-0.60462 0,-0.3669 0.263549,-0.59944 0.263549,-0.23254 0.676959,-0.23254 0.418578,0 0.676959,0.23254 0.263549,0.23254 0.263549,0.59944 0,0.37207 -0.263549,0.60978 -0.258381,0.23771 -0.676959,0.23771 z m 0.80615,6.12881 h -1.63297 v -5.29165 h 1.63297 z" />
      <path
         id="path1998"
         style="font-style:normal;font-variant:normal;font-weight:bold;font-stretch:normal;font-family:'Segoe UI';-inkscape-font-specification:'Segoe UI';fill:#ffffff;fill-opacity:1;stroke-width:0.264583"
         d="m 41.003895,281.85615 h -0.02067 v 0.61495 h -1.63297 v -7.83412 h 1.63297 v 3.33828 h 0.02067 q 0.604612,-0.925 1.72082,-0.925 1.02319,0 1.576126,0.7028 0.552936,0.70279 0.552936,1.92235 0,1.32292 -0.645953,2.1239 -0.645954,0.80098 -1.725988,0.80098 -0.976681,0 -1.477941,-0.74414 z m -0.04651,-2.23241 v 0.5426 q 0,0.51159 0.294555,0.84749 0.294555,0.33589 0.754474,0.33589 0.558103,0 0.862993,-0.42891 0.310058,-0.43408 0.310058,-1.22473 0,-0.65628 -0.28422,-1.02319 -0.279051,-0.37206 -0.800982,-0.37206 -0.490924,0 -0.816485,0.3669 -0.320393,0.3669 -0.320393,0.95601 z" />
      <path
         id="path2000"
         style="font-style:normal;font-variant:normal;font-weight:bold;font-stretch:normal;font-family:'Segoe UI';-inkscape-font-specification:'Segoe UI';fill:#ffffff;fill-opacity:1;stroke-width:0.264583"
         d="m 49.37545,278.65222 q -0.294554,-0.16019 -0.687294,-0.16019 -0.532266,0 -0.831988,0.39274 -0.299722,0.38757 -0.299722,1.05936 v 2.52697 h -1.63297 v -5.29165 h 1.63297 v 0.98185 h 0.02067 q 0.387572,-1.07487 1.395259,-1.07487 0.258382,0 0.403075,0.062 z" />
      <path
         id="path2002"
         style="font-style:normal;font-variant:normal;font-weight:bold;font-stretch:normal;font-family:'Segoe UI';-inkscape-font-specification:'Segoe UI';fill:#ffffff;fill-opacity:1;stroke-width:0.264583"
         d="m 54.543079,282.4711 h -1.54512 v -0.75964 h -0.02067 q -0.532265,0.88883 -1.576126,0.88883 -0.769976,0 -1.214392,-0.43408 -0.439249,-0.43925 -0.439249,-1.16788 0,-1.53996 1.824173,-1.77767 l 1.4366,-0.1912 q 0,-0.86816 -0.940508,-0.86816 -0.945676,0 -1.798334,0.56327 v -1.22989 q 0.341063,-0.1757 0.930173,-0.31006 0.594277,-0.13436 1.080034,-0.13436 2.26342,0 2.26342,2.25825 z m -1.534785,-2.14973 v -0.35657 l -0.961179,0.12402 q -0.795814,0.10336 -0.795814,0.7183 0,0.27906 0.191202,0.45992 0.19637,0.1757 0.527098,0.1757 0.459919,0 0.749306,-0.31522 0.289387,-0.3204 0.289387,-0.80615 z" />
      <path
         id="path2004"
         style="font-style:normal;font-variant:normal;font-weight:bold;font-stretch:normal;font-family:'Segoe UI';-inkscape-font-specification:'Segoe UI';fill:#ffffff;fill-opacity:1;stroke-width:0.264583"
         d="M 59.297295,278.65222 Q 59.00274,278.49203 58.61,278.49203 q -0.532265,0 -0.831987,0.39274 -0.299723,0.38757 -0.299723,1.05936 v 2.52697 h -1.63297 v -5.29165 h 1.63297 v 0.98185 h 0.02067 q 0.387572,-1.07487 1.395259,-1.07487 0.258381,0 0.403075,0.062 z" />
      <path
         id="path2006"
         style="font-style:normal;font-variant:normal;font-weight:bold;font-stretch:normal;font-family:'Segoe UI';-inkscape-font-specification:'Segoe UI';fill:#ffffff;fill-opacity:1;stroke-width:0.264583"
         d="m 65.53462,277.17945 -2.149733,5.7154 q -0.775144,2.06188 -2.335767,2.06188 -0.594277,0 -0.976682,-0.13436 v -1.30224 q 0.325561,0.1912 0.707965,0.1912 0.630451,0 0.878497,-0.59428 l 0.279052,-0.65629 -2.149733,-5.28131 h 1.808669 l 0.987017,3.21943 q 0.09302,0.29972 0.144694,0.70797 h 0.02067 q 0.04651,-0.29973 0.170532,-0.69763 l 0.997352,-3.22977 z" />
      <path
         id="path2008"
         style="font-style:normal;font-variant:normal;font-weight:bold;font-stretch:normal;font-family:'Segoe UI';-inkscape-font-specification:'Segoe UI';fill:#ffffff;fill-opacity:1;stroke-width:0.264583"
         d="m 74.293748,282.4711 h -1.63297 v -0.72864 h -0.02067 q -0.558103,0.85783 -1.638137,0.85783 -0.992185,0 -1.596797,-0.69763 -0.604612,-0.7028 -0.604612,-1.95853 0,-1.31258 0.666624,-2.10322 0.666623,-0.79065 1.746657,-0.79065 1.023191,0 1.426265,0.7338 h 0.02067 v -3.14708 h 1.63297 z m -1.601964,-2.57348 v -0.39791 q 0,-0.51676 -0.299723,-0.85782 -0.299722,-0.34106 -0.780311,-0.34106 -0.542601,0 -0.847491,0.42891 -0.30489,0.42374 -0.30489,1.16788 0,0.69763 0.294555,1.07487 0.294554,0.37723 0.816485,0.37723 0.496092,0 0.806149,-0.3979 0.315226,-0.39791 0.315226,-1.0542 z" />
      <path
         id="path2010"
         style="font-style:normal;font-variant:normal;font-weight:bold;font-stretch:normal;font-family:'Segoe UI';-inkscape-font-specification:'Segoe UI';fill:#ffffff;fill-opacity:1;stroke-width:0.264583"
         d="m 78.190139,282.60029 q -1.322912,0 -2.082554,-0.73897 -0.754473,-0.74414 -0.754473,-2.01537 0,-1.31258 0.785479,-2.05155 0.78548,-0.74414 2.123895,-0.74414 1.317745,0 2.067051,0.74414 0.749305,0.73897 0.749305,1.95853 0,1.31774 -0.775144,2.08255 -0.769976,0.76481 -2.113559,0.76481 z m 0.04134,-4.29946 q -0.578774,0 -0.899167,0.3979 -0.320393,0.39791 -0.320393,1.12654 0,1.52445 1.229895,1.52445 1.173052,0 1.173052,-1.56579 0,-1.4831 -1.183387,-1.4831 z" />
      <path
         id="path2012"
         style="font-style:normal;font-variant:normal;font-weight:bold;font-stretch:normal;font-family:'Segoe UI';-inkscape-font-specification:'Segoe UI';fill:#ffffff;fill-opacity:1;stroke-width:0.264583"
         d="m 86.148283,282.2799 q -0.552936,0.32039 -1.596796,0.32039 -1.21956,0 -1.974034,-0.73897 -0.754473,-0.73897 -0.754473,-1.90685 0,-1.34875 0.806149,-2.1239 0.811318,-0.78031 2.165236,-0.78031 0.935341,0 1.353918,0.24805 v 1.38492 q -0.511595,-0.3824 -1.142045,-0.3824 -0.702797,0 -1.116208,0.41341 -0.408242,0.40824 -0.408242,1.13171 0,0.70279 0.39274,1.10587 0.392739,0.3979 1.080034,0.3979 0.609779,0 1.193721,-0.3824 z" />
      <path
         id="path2014"
         style="font-style:normal;font-variant:normal;font-weight:bold;font-stretch:normal;font-family:'Segoe UI';-inkscape-font-specification:'Segoe UI';fill:#ffffff;fill-opacity:1;stroke-width:0.264583"
         d="m 92.251251,282.4711 h -1.627802 v -0.80615 h -0.02584 q -0.604612,0.93534 -1.617467,0.93534 -1.839675,0 -1.839675,-2.22725 v -3.19359 h 1.627802 v 3.0489 q 0,1.12137 0.888832,1.12137 0.439248,0 0.702797,-0.30489 0.263549,-0.31005 0.263549,-0.83715 v -3.02823 h 1.627802 z" />
      <path
         id="path2016"
         style="font-style:normal;font-variant:normal;font-weight:bold;font-stretch:normal;font-family:'Segoe UI';-inkscape-font-specification:'Segoe UI';fill:#ffffff;fill-opacity:1;stroke-width:0.264583"
         d="m 102.03357,282.4711 h -1.6278 v -3.01789 q 0,-1.15238 -0.847492,-1.15238 -0.403075,0 -0.656288,0.34623 -0.253214,0.34623 -0.253214,0.86299 v 2.96105 h -1.63297 v -3.0489 q 0,-1.12137 -0.831988,-1.12137 -0.418578,0 -0.671791,0.33072 -0.248047,0.33073 -0.248047,0.89917 v 2.94038 h -1.63297 v -5.29165 h 1.63297 v 0.82682 h 0.02067 q 0.253214,-0.42375 0.707965,-0.68729 0.459919,-0.26872 1.002519,-0.26872 1.121375,0 1.534786,0.98702 0.604612,-0.98702 1.777659,-0.98702 1.72599,0 1.72599,2.12906 z" />
      <path
         id="path2018"
         style="font-style:normal;font-variant:normal;font-weight:bold;font-stretch:normal;font-family:'Segoe UI';-inkscape-font-specification:'Segoe UI';fill:#ffffff;fill-opacity:1;stroke-width:0.264583"
         d="m 108.07969,280.29036 h -3.45197 q 0.0827,1.15238 1.4521,1.15238 0.87333,0 1.53479,-0.41341 v 1.17822 q -0.73381,0.39274 -1.90686,0.39274 -1.28157,0 -1.98953,-0.70796 -0.70797,-0.71314 -0.70797,-1.98437 0,-1.31775 0.76481,-2.08772 0.76481,-0.76998 1.88102,-0.76998 1.15754,0 1.78799,0.68729 0.63562,0.6873 0.63562,1.86552 z m -1.51411,-1.00252 q 0,-1.13688 -0.91984,-1.13688 -0.39274,0 -0.68213,0.32556 -0.28422,0.32556 -0.34623,0.81132 z" />
      <path
         id="path2020"
         style="font-style:normal;font-variant:normal;font-weight:bold;font-stretch:normal;font-family:'Segoe UI';-inkscape-font-specification:'Segoe UI';fill:#ffffff;fill-opacity:1;stroke-width:0.264583"
         d="m 114.16199,282.4711 h -1.6278 v -2.94038 q 0,-1.22989 -0.8785,-1.22989 -0.42374,0 -0.69763,0.32556 -0.27388,0.32556 -0.27388,0.82682 v 3.01789 h -1.63297 v -5.29165 h 1.63297 v 0.83716 h 0.0207 q 0.58394,-0.96635 1.70015,-0.96635 1.75699,0 1.75699,2.18074 z" />
      <path
         id="path2022"
         style="font-style:normal;font-variant:normal;font-weight:bold;font-stretch:normal;font-family:'Segoe UI';-inkscape-font-specification:'Segoe UI';fill:#ffffff;fill-opacity:1;stroke-width:0.264583"
         d="m 118.65782,282.40909 q -0.36173,0.1912 -1.09037,0.1912 -1.72599,0 -1.72599,-1.79317 v -2.42361 h -0.85782 v -1.20406 h 0.85782 v -1.14205 l 1.62781,-0.46508 v 1.60713 h 1.18855 v 1.20406 h -1.18855 v 2.13939 q 0,0.82682 0.65628,0.82682 0.25839,0 0.53227,-0.14986 z" />
      <path
         id="path2024"
         style="font-style:normal;font-variant:normal;font-weight:bold;font-stretch:normal;font-family:'Segoe UI';-inkscape-font-specification:'Segoe UI';fill:#ffffff;fill-opacity:1;stroke-width:0.264583"
         d="m 123.97531,282.4711 h -1.54512 v -0.75964 h -0.0207 q -0.53227,0.88883 -1.57613,0.88883 -0.76997,0 -1.21439,-0.43408 -0.43925,-0.43925 -0.43925,-1.16788 0,-1.53996 1.82418,-1.77767 l 1.4366,-0.1912 q 0,-0.86816 -0.94051,-0.86816 -0.94568,0 -1.79834,0.56327 v -1.22989 q 0.34107,-0.1757 0.93018,-0.31006 0.59427,-0.13436 1.08003,-0.13436 2.26342,0 2.26342,2.25825 z m -1.53478,-2.14973 v -0.35657 l -0.96118,0.12402 q -0.79582,0.10336 -0.79582,0.7183 0,0.27906 0.1912,0.45992 0.19637,0.1757 0.5271,0.1757 0.45992,0 0.74931,-0.31522 0.28939,-0.3204 0.28939,-0.80615 z" />
      <path
         id="path2026"
         style="font-style:normal;font-variant:normal;font-weight:bold;font-stretch:normal;font-family:'Segoe UI';-inkscape-font-specification:'Segoe UI';fill:#ffffff;fill-opacity:1;stroke-width:0.264583"
         d="m 128.47632,282.40909 q -0.36174,0.1912 -1.09037,0.1912 -1.72599,0 -1.72599,-1.79317 v -2.42361 h -0.85783 v -1.20406 h 0.85783 v -1.14205 l 1.6278,-0.46508 v 1.60713 h 1.18856 v 1.20406 h -1.18856 v 2.13939 q 0,0.82682 0.65629,0.82682 0.25838,0 0.53227,-0.14986 z" />
      <path
         id="path2028"
         style="font-style:normal;font-variant:normal;font-weight:bold;font-stretch:normal;font-family:'Segoe UI';-inkscape-font-specification:'Segoe UI';fill:#ffffff;fill-opacity:1;stroke-width:0.264583"
         d="m 130.2178,276.34229 q -0.41341,0 -0.67696,-0.24287 -0.26355,-0.24805 -0.26355,-0.60462 0,-0.3669 0.26355,-0.59944 0.26355,-0.23254 0.67696,-0.23254 0.41858,0 0.67696,0.23254 0.26355,0.23254 0.26355,0.59944 0,0.37207 -0.26355,0.60978 -0.25838,0.23771 -0.67696,0.23771 z m 0.80615,6.12881 h -1.63297 v -5.29165 h 1.63297 z" />
      <path
         id="path2030"
         style="font-style:normal;font-variant:normal;font-weight:bold;font-stretch:normal;font-family:'Segoe UI';-inkscape-font-specification:'Segoe UI';fill:#ffffff;fill-opacity:1;stroke-width:0.264583"
         d="m 134.93068,282.60029 q -1.32291,0 -2.08255,-0.73897 -0.75447,-0.74414 -0.75447,-2.01537 0,-1.31258 0.78547,-2.05155 0.78548,-0.74414 2.1239,-0.74414 1.31774,0 2.06705,0.74414 0.74931,0.73897 0.74931,1.95853 0,1.31774 -0.77515,2.08255 -0.76997,0.76481 -2.11356,0.76481 z m 0.0413,-4.29946 q -0.57877,0 -0.89916,0.3979 -0.3204,0.39791 -0.3204,1.12654 0,1.52445 1.2299,1.52445 1.17305,0 1.17305,-1.56579 0,-1.4831 -1.18339,-1.4831 z" />
      <path
         id="path2032"
         style="font-style:normal;font-variant:normal;font-weight:bold;font-stretch:normal;font-family:'Segoe UI';-inkscape-font-specification:'Segoe UI';fill:#ffffff;fill-opacity:1;stroke-width:0.264583"
         d="m 143.98953,282.4711 h -1.62781 v -2.94038 q 0,-1.22989 -0.87849,-1.22989 -0.42375,0 -0.69763,0.32556 -0.27389,0.32556 -0.27389,0.82682 v 3.01789 h -1.63297 v -5.29165 h 1.63297 v 0.83716 h 0.0207 q 0.58394,-0.96635 1.70014,-0.96635 1.757,0 1.757,2.18074 z" />
    </g>
  </g>
</svg>
