<?xml version="1.0" encoding="UTF-8" standalone="no"?>
<svg
   xmlns:dc="http://purl.org/dc/elements/1.1/"
   xmlns:cc="http://creativecommons.org/ns#"
   xmlns:rdf="http://www.w3.org/1999/02/22-rdf-syntax-ns#"
   xmlns:svg="http://www.w3.org/2000/svg"
   xmlns="http://www.w3.org/2000/svg"
   xmlns:sodipodi="http://sodipodi.sourceforge.net/DTD/sodipodi-0.dtd"
   xmlns:inkscape="http://www.inkscape.org/namespaces/inkscape"
   width="169.69493mm"
   height="43.072918mm"
   viewBox="0 0 169.69493 43.072918"
   version="1.1"
   id="svg1421"
   inkscape:version="1.0 (4035a4fb49, 2020-05-01)"
   sodipodi:docname="Rbutton.svg">
  <defs
     id="defs1415" />
  <sodipodi:namedview
     id="base"
     pagecolor="#ffffff"
     bordercolor="#666666"
     borderopacity="1.0"
     inkscape:pageopacity="0.0"
     inkscape:pageshadow="2"
     inkscape:zoom="1.0574425"
     inkscape:cx="417.61928"
     inkscape:cy="-150.99834"
     inkscape:document-units="mm"
     inkscape:current-layer="layer1"
     inkscape:document-rotation="0"
     showgrid="false"
     fit-margin-top="5"
     fit-margin-left="5"
     fit-margin-right="5"
     fit-margin-bottom="5"
     lock-margins="true"
     inkscape:window-width="2560"
     inkscape:window-height="1377"
     inkscape:window-x="-8"
     inkscape:window-y="-8"
     inkscape:window-maximized="1" />
  <metadata
     id="metadata1418">
    <rdf:RDF>
      <cc:Work
         rdf:about="">
        <dc:format>image/svg+xml</dc:format>
        <dc:type
           rdf:resource="http://purl.org/dc/dcmitype/StillImage" />
        <dc:title />
      </cc:Work>
    </rdf:RDF>
  </metadata>
  <g
     inkscape:label="Livello 1"
     inkscape:groupmode="layer"
     id="layer1"
     transform="translate(4.2440478,-258.26041)">
    <rect
       style="fill:#93c2ed;fill-opacity:1;stroke:none;stroke-width:4;stroke-linecap:round;stroke-linejoin:round"
       id="rect1427"
       width="159.69493"
       height="33.072918"
       x="0.75595224"
       y="263.26041"
       rx="10" />
    <g
       style="font-style:normal;font-weight:normal;font-size:10.5833px;line-height:1.25;font-family:sans-serif;fill:#ffffff;fill-opacity:1;stroke:none;stroke-width:0.264583"
       id="text1425"
       aria-label="R package documentation">
      <path
         id="path2043"
         style="font-style:normal;font-variant:normal;font-weight:bold;font-stretch:normal;font-family:'Segoe UI';-inkscape-font-specification:'Segoe UI';fill:#ffffff;fill-opacity:1;stroke-width:0.264583"
         d="m 22.519294,282.4711 h -1.917189 l -1.152381,-1.90685 q -0.12919,-0.21704 -0.248046,-0.38758 -0.118855,-0.17053 -0.242878,-0.28938 -0.118856,-0.12403 -0.253214,-0.18604 -0.129191,-0.0672 -0.28422,-0.0672 h -0.449583 v 2.83703 h -1.669144 v -7.41038 h 2.645825 q 2.697502,0 2.697502,2.01538 0,0.38757 -0.118856,0.7183 -0.118855,0.32556 -0.335896,0.58911 -0.21704,0.26355 -0.527098,0.45475 -0.304889,0.1912 -0.682126,0.29972 v 0.0207 q 0.165364,0.0517 0.320393,0.17053 0.155028,0.11369 0.299722,0.26872 0.144694,0.15503 0.273884,0.3359 0.134358,0.17569 0.242879,0.34623 z m -4.547511,-6.15981 v 2.06188 h 0.723468 q 0.537433,0 0.862993,-0.31006 0.330728,-0.31522 0.330728,-0.78031 0,-0.97151 -1.162716,-0.97151 z" />
      <path
         id="path2045"
         style="font-style:normal;font-variant:normal;font-weight:bold;font-stretch:normal;font-family:'Segoe UI';-inkscape-font-specification:'Segoe UI';fill:#ffffff;fill-opacity:1;stroke-width:0.264583"
         d="m 27.614575,281.85615 h -0.02067 v 3.0489 h -1.63297 v -7.7256 h 1.63297 v 0.79581 h 0.02067 q 0.604612,-0.925 1.700149,-0.925 1.028358,0 1.586461,0.70796 0.563272,0.7028 0.563272,1.91719 0,1.32292 -0.656289,2.1239 -0.651121,0.80098 -1.736323,0.80098 -0.956011,0 -1.45727,-0.74414 z m -0.04651,-2.1704 v 0.42374 q 0,0.54777 0.289387,0.894 0.289387,0.34623 0.759641,0.34623 0.558104,0 0.862994,-0.42891 0.310057,-0.43408 0.310057,-1.22473 0,-1.39525 -1.085201,-1.39525 -0.50126,0 -0.821653,0.3824 -0.315225,0.37724 -0.315225,1.00252 z" />
      <path
         id="path2047"
         style="font-style:normal;font-variant:normal;font-weight:bold;font-stretch:normal;font-family:'Segoe UI';-inkscape-font-specification:'Segoe UI';fill:#ffffff;fill-opacity:1;stroke-width:0.264583"
         d="m 36.83362,282.4711 h -1.545121 v -0.75964 h -0.02067 q -0.532266,0.88883 -1.576126,0.88883 -0.769977,0 -1.214393,-0.43408 -0.439248,-0.43925 -0.439248,-1.16788 0,-1.53996 1.824172,-1.77767 l 1.436601,-0.1912 q 0,-0.86816 -0.940508,-0.86816 -0.945676,0 -1.798335,0.56327 v -1.22989 q 0.341064,-0.1757 0.930173,-0.31006 0.594277,-0.13436 1.080034,-0.13436 2.263421,0 2.263421,2.25825 z m -1.534785,-2.14973 v -0.35657 l -0.961179,0.12402 q -0.795814,0.10336 -0.795814,0.7183 0,0.27906 0.191202,0.45992 0.19637,0.1757 0.527098,0.1757 0.459918,0 0.749306,-0.31522 0.289387,-0.3204 0.289387,-0.80615 z" />
      <path
         id="path2049"
         style="font-style:normal;font-variant:normal;font-weight:bold;font-stretch:normal;font-family:'Segoe UI';-inkscape-font-specification:'Segoe UI';fill:#ffffff;fill-opacity:1;stroke-width:0.264583"
         d="m 42.145941,282.2799 q -0.552936,0.32039 -1.596797,0.32039 -1.21956,0 -1.974033,-0.73897 -0.754474,-0.73897 -0.754474,-1.90685 0,-1.34875 0.80615,-2.1239 0.811318,-0.78031 2.165236,-0.78031 0.93534,0 1.353918,0.24805 v 1.38492 q -0.511595,-0.3824 -1.142045,-0.3824 -0.702798,0 -1.116208,0.41341 -0.408242,0.40824 -0.408242,1.13171 0,0.70279 0.392739,1.10587 0.39274,0.3979 1.080034,0.3979 0.60978,0 1.193722,-0.3824 z" />
      <path
         id="path2051"
         style="font-style:normal;font-variant:normal;font-weight:bold;font-stretch:normal;font-family:'Segoe UI';-inkscape-font-specification:'Segoe UI';fill:#ffffff;fill-opacity:1;stroke-width:0.264583"
         d="m 48.522792,282.4711 h -1.958531 l -1.689814,-2.62515 h -0.02067 v 2.62515 h -1.632971 v -7.83412 h 1.632971 v 4.98676 h 0.02067 l 1.576126,-2.44429 h 1.93786 l -1.896519,2.48563 z" />
      <path
         id="path2053"
         style="font-style:normal;font-variant:normal;font-weight:bold;font-stretch:normal;font-family:'Segoe UI';-inkscape-font-specification:'Segoe UI';fill:#ffffff;fill-opacity:1;stroke-width:0.264583"
         d="m 53.535389,282.4711 h -1.545121 v -0.75964 h -0.02067 q -0.532266,0.88883 -1.576126,0.88883 -0.769977,0 -1.214393,-0.43408 -0.439248,-0.43925 -0.439248,-1.16788 0,-1.53996 1.824172,-1.77767 l 1.4366,-0.1912 q 0,-0.86816 -0.940508,-0.86816 -0.945675,0 -1.798334,0.56327 v -1.22989 q 0.341064,-0.1757 0.930173,-0.31006 0.594277,-0.13436 1.080034,-0.13436 2.263421,0 2.263421,2.25825 z m -1.534786,-2.14973 v -0.35657 l -0.961178,0.12402 q -0.795815,0.10336 -0.795815,0.7183 0,0.27906 0.191203,0.45992 0.196369,0.1757 0.527098,0.1757 0.459918,0 0.749305,-0.31522 0.289387,-0.3204 0.289387,-0.80615 z" />
      <path
         id="path2055"
         style="font-style:normal;font-variant:normal;font-weight:bold;font-stretch:normal;font-family:'Segoe UI';-inkscape-font-specification:'Segoe UI';fill:#ffffff;fill-opacity:1;stroke-width:0.264583"
         d="m 60.025931,281.86649 q 0,1.47277 -0.852659,2.27892 -0.852658,0.81132 -2.470125,0.81132 -1.069699,0 -1.694982,-0.30489 v -1.37459 q 0.816485,0.47542 1.648473,0.47542 0.82682,0 1.281572,-0.43925 0.454751,-0.43408 0.454751,-1.18338 v -0.41858 h -0.02067 q -0.558103,0.88883 -1.648473,0.88883 -1.012855,0 -1.607132,-0.71313 -0.594277,-0.71313 -0.594277,-1.91202 0,-1.34359 0.661456,-2.13423 0.661457,-0.79065 1.741491,-0.79065 0.966346,0 1.446935,0.74414 h 0.02067 v -0.61495 h 1.63297 z m -1.6123,-1.93786 v -0.41858 q 0,-0.50126 -0.299722,-0.85266 -0.294555,-0.35656 -0.769977,-0.35656 -0.5426,0 -0.852658,0.42374 -0.310058,0.42375 -0.310058,1.19372 0,0.66146 0.294555,1.04903 0.294555,0.3824 0.80615,0.3824 0.506427,0 0.816485,-0.38757 0.315225,-0.39274 0.315225,-1.03352 z" />
      <path
         id="path2057"
         style="font-style:normal;font-variant:normal;font-weight:bold;font-stretch:normal;font-family:'Segoe UI';-inkscape-font-specification:'Segoe UI';fill:#ffffff;fill-opacity:1;stroke-width:0.264583"
         d="m 66.144401,280.29036 h -3.451974 q 0.08268,1.15238 1.452103,1.15238 0.873329,0 1.534785,-0.41341 v 1.17822 q -0.733803,0.39274 -1.906854,0.39274 -1.281572,0 -1.989537,-0.70796 -0.707964,-0.71314 -0.707964,-1.98437 0,-1.31775 0.764808,-2.08772 0.764809,-0.76998 1.881016,-0.76998 1.157549,0 1.787999,0.68729 0.635618,0.6873 0.635618,1.86552 z m -1.514114,-1.00252 q 0,-1.13688 -0.919838,-1.13688 -0.392739,0 -0.682127,0.32556 -0.284219,0.32556 -0.346231,0.81132 z" />
      <path
         id="path2059"
         style="font-style:normal;font-variant:normal;font-weight:bold;font-stretch:normal;font-family:'Segoe UI';-inkscape-font-specification:'Segoe UI';fill:#ffffff;fill-opacity:1;stroke-width:0.264583"
         d="m 75.208417,282.4711 h -1.63297 v -0.72864 h -0.02067 q -0.558103,0.85783 -1.638137,0.85783 -0.992185,0 -1.596797,-0.69763 -0.604612,-0.7028 -0.604612,-1.95853 0,-1.31258 0.666624,-2.10322 0.666623,-0.79065 1.746657,-0.79065 1.023191,0 1.426265,0.7338 h 0.02067 v -3.14708 h 1.63297 z m -1.601964,-2.57348 v -0.39791 q 0,-0.51676 -0.299723,-0.85782 -0.299722,-0.34106 -0.780311,-0.34106 -0.542601,0 -0.847491,0.42891 -0.30489,0.42374 -0.30489,1.16788 0,0.69763 0.294555,1.07487 0.294554,0.37723 0.816485,0.37723 0.496092,0 0.806149,-0.3979 0.315226,-0.39791 0.315226,-1.0542 z" />
      <path
         id="path2061"
         style="font-style:normal;font-variant:normal;font-weight:bold;font-stretch:normal;font-family:'Segoe UI';-inkscape-font-specification:'Segoe UI';fill:#ffffff;fill-opacity:1;stroke-width:0.264583"
         d="m 79.104808,282.60029 q -1.322912,0 -2.082553,-0.73897 -0.754474,-0.74414 -0.754474,-2.01537 0,-1.31258 0.785479,-2.05155 0.78548,-0.74414 2.123895,-0.74414 1.317745,0 2.067051,0.74414 0.749305,0.73897 0.749305,1.95853 0,1.31774 -0.775144,2.08255 -0.769976,0.76481 -2.113559,0.76481 z m 0.04134,-4.29946 q -0.578774,0 -0.899167,0.3979 -0.320393,0.39791 -0.320393,1.12654 0,1.52445 1.229895,1.52445 1.173052,0 1.173052,-1.56579 0,-1.4831 -1.183387,-1.4831 z" />
      <path
         id="path2063"
         style="font-style:normal;font-variant:normal;font-weight:bold;font-stretch:normal;font-family:'Segoe UI';-inkscape-font-specification:'Segoe UI';fill:#ffffff;fill-opacity:1;stroke-width:0.264583"
         d="m 87.062952,282.2799 q -0.552936,0.32039 -1.596796,0.32039 -1.21956,0 -1.974034,-0.73897 -0.754473,-0.73897 -0.754473,-1.90685 0,-1.34875 0.80615,-2.1239 0.811317,-0.78031 2.165235,-0.78031 0.935341,0 1.353918,0.24805 v 1.38492 q -0.511595,-0.3824 -1.142045,-0.3824 -0.702797,0 -1.116208,0.41341 -0.408242,0.40824 -0.408242,1.13171 0,0.70279 0.39274,1.10587 0.392739,0.3979 1.080034,0.3979 0.60978,0 1.193721,-0.3824 z" />
      <path
         id="path2065"
         style="font-style:normal;font-variant:normal;font-weight:bold;font-stretch:normal;font-family:'Segoe UI';-inkscape-font-specification:'Segoe UI';fill:#ffffff;fill-opacity:1;stroke-width:0.264583"
         d="m 93.16592,282.4711 h -1.627802 v -0.80615 h -0.02584 q -0.604612,0.93534 -1.617467,0.93534 -1.839675,0 -1.839675,-2.22725 v -3.19359 h 1.627802 v 3.0489 q 0,1.12137 0.888832,1.12137 0.439248,0 0.702797,-0.30489 0.263549,-0.31005 0.263549,-0.83715 v -3.02823 h 1.627802 z" />
      <path
         id="path2067"
         style="font-style:normal;font-variant:normal;font-weight:bold;font-stretch:normal;font-family:'Segoe UI';-inkscape-font-specification:'Segoe UI';fill:#ffffff;fill-opacity:1;stroke-width:0.264583"
         d="m 102.94824,282.4711 h -1.6278 v -3.01789 q 0,-1.15238 -0.84749,-1.15238 -0.40308,0 -0.656291,0.34623 -0.253214,0.34623 -0.253214,0.86299 v 2.96105 h -1.63297 v -3.0489 q 0,-1.12137 -0.831988,-1.12137 -0.418578,0 -0.671791,0.33072 -0.248046,0.33073 -0.248046,0.89917 v 2.94038 h -1.632971 v -5.29165 h 1.632971 v 0.82682 h 0.02067 q 0.253214,-0.42375 0.707965,-0.68729 0.459919,-0.26872 1.002519,-0.26872 1.121375,0 1.534786,0.98702 0.60461,-0.98702 1.77766,-0.98702 1.72599,0 1.72599,2.12906 z" />
      <path
         id="path2069"
         style="font-style:normal;font-variant:normal;font-weight:bold;font-stretch:normal;font-family:'Segoe UI';-inkscape-font-specification:'Segoe UI';fill:#ffffff;fill-opacity:1;stroke-width:0.264583"
         d="m 108.99436,280.29036 h -3.45197 q 0.0827,1.15238 1.4521,1.15238 0.87333,0 1.53479,-0.41341 v 1.17822 q -0.73381,0.39274 -1.90686,0.39274 -1.28157,0 -1.98954,-0.70796 -0.70796,-0.71314 -0.70796,-1.98437 0,-1.31775 0.76481,-2.08772 0.76481,-0.76998 1.88101,-0.76998 1.15755,0 1.788,0.68729 0.63562,0.6873 0.63562,1.86552 z m -1.51411,-1.00252 q 0,-1.13688 -0.91984,-1.13688 -0.39274,0 -0.68213,0.32556 -0.28422,0.32556 -0.34623,0.81132 z" />
      <path
         id="path2071"
         style="font-style:normal;font-variant:normal;font-weight:bold;font-stretch:normal;font-family:'Segoe UI';-inkscape-font-specification:'Segoe UI';fill:#ffffff;fill-opacity:1;stroke-width:0.264583"
         d="m 115.07666,282.4711 h -1.6278 v -2.94038 q 0,-1.22989 -0.8785,-1.22989 -0.42375,0 -0.69763,0.32556 -0.27388,0.32556 -0.27388,0.82682 v 3.01789 h -1.63297 v -5.29165 h 1.63297 v 0.83716 h 0.0207 q 0.58394,-0.96635 1.70015,-0.96635 1.75699,0 1.75699,2.18074 z" />
      <path
         id="path2073"
         style="font-style:normal;font-variant:normal;font-weight:bold;font-stretch:normal;font-family:'Segoe UI';-inkscape-font-specification:'Segoe UI';fill:#ffffff;fill-opacity:1;stroke-width:0.264583"
         d="m 119.5725,282.40909 q -0.36174,0.1912 -1.09037,0.1912 -1.72599,0 -1.72599,-1.79317 v -2.42361 h -0.85783 v -1.20406 h 0.85783 v -1.14205 l 1.6278,-0.46508 v 1.60713 h 1.18856 v 1.20406 h -1.18856 v 2.13939 q 0,0.82682 0.65629,0.82682 0.25838,0 0.53227,-0.14986 z" />
      <path
         id="path2075"
         style="font-style:normal;font-variant:normal;font-weight:bold;font-stretch:normal;font-family:'Segoe UI';-inkscape-font-specification:'Segoe UI';fill:#ffffff;fill-opacity:1;stroke-width:0.264583"
         d="m 124.88998,282.4711 h -1.54512 v -0.75964 h -0.0207 q -0.53227,0.88883 -1.57613,0.88883 -0.76997,0 -1.21439,-0.43408 -0.43925,-0.43925 -0.43925,-1.16788 0,-1.53996 1.82417,-1.77767 l 1.4366,-0.1912 q 0,-0.86816 -0.9405,-0.86816 -0.94568,0 -1.79834,0.56327 v -1.22989 q 0.34107,-0.1757 0.93018,-0.31006 0.59427,-0.13436 1.08003,-0.13436 2.26342,0 2.26342,2.25825 z m -1.53479,-2.14973 v -0.35657 l -0.96117,0.12402 q -0.79582,0.10336 -0.79582,0.7183 0,0.27906 0.1912,0.45992 0.19637,0.1757 0.5271,0.1757 0.45992,0 0.74931,-0.31522 0.28938,-0.3204 0.28938,-0.80615 z" />
      <path
         id="path2077"
         style="font-style:normal;font-variant:normal;font-weight:bold;font-stretch:normal;font-family:'Segoe UI';-inkscape-font-specification:'Segoe UI';fill:#ffffff;fill-opacity:1;stroke-width:0.264583"
         d="m 129.39099,282.40909 q -0.36174,0.1912 -1.09037,0.1912 -1.72599,0 -1.72599,-1.79317 v -2.42361 h -0.85783 v -1.20406 h 0.85783 v -1.14205 l 1.6278,-0.46508 v 1.60713 h 1.18856 v 1.20406 h -1.18856 v 2.13939 q 0,0.82682 0.65629,0.82682 0.25838,0 0.53227,-0.14986 z" />
      <path
         id="path2079"
         style="font-style:normal;font-variant:normal;font-weight:bold;font-stretch:normal;font-family:'Segoe UI';-inkscape-font-specification:'Segoe UI';fill:#ffffff;fill-opacity:1;stroke-width:0.264583"
         d="m 131.13247,276.34229 q -0.41341,0 -0.67696,-0.24287 -0.26355,-0.24805 -0.26355,-0.60462 0,-0.3669 0.26355,-0.59944 0.26355,-0.23254 0.67696,-0.23254 0.41858,0 0.67696,0.23254 0.26355,0.23254 0.26355,0.59944 0,0.37207 -0.26355,0.60978 -0.25838,0.23771 -0.67696,0.23771 z m 0.80615,6.12881 h -1.63297 v -5.29165 h 1.63297 z" />
      <path
         id="path2081"
         style="font-style:normal;font-variant:normal;font-weight:bold;font-stretch:normal;font-family:'Segoe UI';-inkscape-font-specification:'Segoe UI';fill:#ffffff;fill-opacity:1;stroke-width:0.264583"
         d="m 135.84535,282.60029 q -1.32291,0 -2.08255,-0.73897 -0.75448,-0.74414 -0.75448,-2.01537 0,-1.31258 0.78548,-2.05155 0.78548,-0.74414 2.1239,-0.74414 1.31774,0 2.06705,0.74414 0.7493,0.73897 0.7493,1.95853 0,1.31774 -0.77514,2.08255 -0.76998,0.76481 -2.11356,0.76481 z m 0.0413,-4.29946 q -0.57877,0 -0.89916,0.3979 -0.3204,0.39791 -0.3204,1.12654 0,1.52445 1.2299,1.52445 1.17305,0 1.17305,-1.56579 0,-1.4831 -1.18339,-1.4831 z" />
      <path
         id="path2083"
         style="font-style:normal;font-variant:normal;font-weight:bold;font-stretch:normal;font-family:'Segoe UI';-inkscape-font-specification:'Segoe UI';fill:#ffffff;fill-opacity:1;stroke-width:0.264583"
         d="m 144.9042,282.4711 h -1.62781 v -2.94038 q 0,-1.22989 -0.87849,-1.22989 -0.42375,0 -0.69763,0.32556 -0.27389,0.32556 -0.27389,0.82682 v 3.01789 h -1.63297 v -5.29165 h 1.63297 v 0.83716 h 0.0207 q 0.58395,-0.96635 1.70015,-0.96635 1.757,0 1.757,2.18074 z" />
    </g>
  </g>
</svg>
